# xmcd CD database file
#
# Track frame offsets:
#	150
#	14941
#	25282
#	26678
#	42042
#	53376
#	65062
#	76437
#	105002
#	113002
#	125676
#	183677
#	201817
#	227028
#	240134
#	256677
#
# Disc length: 3600 seconds
#
# Submitted via: cddb-tool 0.4.7
#
#blues,classical,country,data,folk,jazz,newage,reggae,rock,soundtrack,misc
#CATEGORY=blues
# Revision: 0
# Processed by: cddbd v1.5.2PL0 Copyright (c) Steve Scherf et al.
#
DISCID=c80e0e10
DTITLE=Matthias Brodowy - Landeanflug
DYEAR=2003
DGENRE=Comedy
TTITLE0=Ufos über Berlin
TTITLE1=Faul sein
TTITLE2=Fleissig sein
TTITLE3=Stadt mit Keks
TTITLE4=Dekadenz
TTITLE5=Eintritt frei
TTITLE6=Asche zu Asche
TTITLE7=Revolutionär
TTITLE8=Rastamütze
TTITLE9=Jamma Jamma
TTITLE10=Deutschland retten
TTITLE11=Stadt mit Keks (Nana-Version)
TTITLE12=Über Gewicht
TTITLE13=Don Sarotti
TTITLE14=Arie von der letzten Praline
TTITLE15=Landeanflug
EXTD=
EXTT0=
EXTT1=
EXTT2=
EXTT3=
EXTT4=
EXTT5=
EXTT6=
EXTT7=
EXTT8=
EXTT9=
EXTT10=
EXTT11=
EXTT12=
EXTT13=
EXTT14=
EXTT15=
PLAYORDER=
